<svg xmlns="http://www.w3.org/2000/svg" viewBox="0 0 400 400">
  <g>
    <!-- ANILLO 3 (RECUPERADO / NUEVO MÁS INTERIOR) -->
    <circle cx="200.00" cy="95.00" r="8.00" fill="hsl(147.2, 80%, 28.1%)" />
    <circle cx="222.73" cy="108.12" r="8.00" fill="hsl(157.9, 80%, 30.6%)" />
    <circle cx="245.47" cy="121.25" r="8.00" fill="hsl(163.8, 80%, 33.9%)" />
    <circle cx="268.20" cy="134.38" r="8.00" fill="hsl(165.0, 80%, 37.6%)" />
    <circle cx="290.93" cy="147.50" r="8.00" fill="hsl(160.7, 80%, 41.5%)" />
    <circle cx="290.93" cy="173.75" r="8.00" fill="hsl(152.0, 80%, 45.4%)" />
    <circle cx="290.93" cy="200.00" r="8.00" fill="hsl(139.7, 80%, 48.7%)" />
    <circle cx="290.93" cy="226.25" r="8.00" fill="hsl(125.7, 80%, 50.7%)" />
    <circle cx="290.93" cy="252.50" r="8.00" fill="hsl(111.9, 80%, 50.9%)" />
    <circle cx="268.20" cy="265.62" r="8.00" fill="hsl(99.6, 80%, 49.5%)" />
    <circle cx="245.47" cy="278.75" r="8.00" fill="hsl(91.7, 80%, 46.9%)" />
    <circle cx="222.73" cy="291.88" r="8.00" fill="hsl(88.9, 80%, 43.4%)" />
    <circle cx="200.00" cy="305.00" r="8.00" fill="hsl(91.2, 80%, 39.8%)" />
    <circle cx="177.27" cy="291.88" r="8.00" fill="hsl(98.3, 80%, 36.3%)" />
    <circle cx="154.53" cy="278.75" r="8.00" fill="hsl(108.9, 80%, 33.2%)" />
    <circle cx="131.80" cy="265.62" r="8.00" fill="hsl(121.7, 80%, 30.6%)" />
    <circle cx="109.07" cy="252.50" r="8.00" fill="hsl(135.2, 80%, 28.8%)" />
    <circle cx="109.07" cy="226.25" r="8.00" fill="hsl(146.6, 80%, 27.8%)" />
    <circle cx="109.07" cy="200.00" r="8.00" fill="hsl(153.8, 80%, 27.6%)" />
    <circle cx="109.07" cy="173.75" r="8.00" fill="hsl(155.0, 80%, 28.3%)" />
    <circle cx="109.07" cy="147.50" r="8.00" fill="hsl(150.8, 80%, 29.8%)" />
    <circle cx="131.80" cy="134.38" r="8.00" fill="hsl(142.1, 80%, 32.1%)" />
    <circle cx="154.53" cy="121.25" r="8.00" fill="hsl(130.4, 80%, 35.1%)" />
    <circle cx="177.27" cy="108.12" r="8.00" fill="hsl(117.2, 80%, 38.3%)" />

    <!-- ANILLO 4 -->
    <circle cx="200.00" cy="62.00" r="6.00" fill="hsl(147.2, 80%, 28.1%)" />
    <circle cx="223.90" cy="75.80" r="6.00" fill="hsl(156.8, 80%, 30.3%)" />
    <circle cx="247.80" cy="89.60" r="6.00" fill="hsl(162.9, 80%, 33.3%)" />
    <circle cx="271.70" cy="103.40" r="6.00" fill="hsl(165.0, 80%, 36.8%)" />
    <circle cx="295.60" cy="117.20" r="6.00" fill="hsl(162.8, 80%, 40.5%)" />
    <circle cx="319.50" cy="131.00" r="6.00" fill="hsl(156.4, 80%, 44.1%)" />
    <circle cx="319.50" cy="158.60" r="6.00" fill="hsl(146.0, 80%, 47.3%)" />
    <circle cx="319.50" cy="186.20" r="6.00" fill="hsl(132.8, 80%, 49.7%)" />
    <circle cx="319.50" cy="213.80" r="6.00" fill="hsl(118.0, 80%, 50.9%)" />
    <circle cx="319.50" cy="241.40" r="6.00" fill="hsl(103.8, 80%, 50.7%)" />
    <circle cx="319.50" cy="269.00" r="6.00" fill="hsl(92.7, 80%, 49.0%)" />
    <circle cx="295.60" cy="282.80" r="6.00" fill="hsl(87.5, 80%, 46.2%)" />
    <circle cx="271.70" cy="296.60" r="6.00" fill="hsl(88.0, 80%, 42.8%)" />
    <circle cx="247.80" cy="310.40" r="6.00" fill="hsl(93.6, 80%, 39.3%)" />
    <circle cx="223.90" cy="324.20" r="6.00" fill="hsl(102.7, 80%, 35.9%)" />
    <circle cx="200.00" cy="338.00" r="6.00" fill="hsl(114.7, 80%, 32.9%)" />
    <circle cx="176.10" cy="324.20" r="6.00" fill="hsl(128.1, 80%, 30.5%)" />
    <circle cx="152.20" cy="310.40" r="6.00" fill="hsl(140.7, 80%, 28.7%)" />
    <circle cx="128.30" cy="296.60" r="6.00" fill="hsl(150.4, 80%, 27.7%)" />
    <circle cx="104.40" cy="282.80" r="6.00" fill="hsl(155.0, 80%, 27.6%)" />
    <circle cx="80.50" cy="269.00" r="6.00" fill="hsl(154.2, 80%, 28.3%)" />
    <circle cx="80.50" cy="241.40" r="6.00" fill="hsl(148.6, 80%, 29.8%)" />
    <circle cx="80.50" cy="213.80" r="6.00" fill="hsl(138.8, 80%, 32.1%)" />
    <circle cx="80.50" cy="186.20" r="6.00" fill="hsl(126.3, 80%, 35.0%)" />
    <circle cx="80.50" cy="158.60" r="6.00" fill="hsl(113.0, 80%, 38.1%)" />
    <circle cx="80.50" cy="131.00" r="6.00" fill="hsl(101.4, 80%, 41.3%)" />
    <circle cx="104.40" cy="117.20" r="6.00" fill="hsl(93.1, 80%, 44.1%)" />
    <circle cx="128.30" cy="103.40" r="6.00" fill="hsl(89.5, 80%, 46.3%)" />
    <circle cx="152.20" cy="89.60" r="6.00" fill="hsl(90.6, 80%, 47.6%)" />
    <circle cx="176.10" cy="75.80" r="6.00" fill="hsl(96.2, 80%, 47.9%)" />

    <!-- ANILLO 5 -->
    <circle cx="200.00" cy="35.00" r="4.00" fill="hsl(147.2, 80%, 28.1%)" />
    <circle cx="223.82" cy="48.75" r="4.00" fill="hsl(156.0, 80%, 30.1%)" />
    <circle cx="247.63" cy="62.50" r="4.00" fill="hsl(162.2, 80%, 32.8%)" />
    <circle cx="271.45" cy="76.25" r="4.00" fill="hsl(165.0, 80%, 36.1%)" />
    <circle cx="295.26" cy="90.00" r="4.00" fill="hsl(163.8, 80%, 39.6%)" />
    <circle cx="319.08" cy="103.75" r="4.00" fill="hsl(158.5, 80%, 43.1%)" />
    <circle cx="342.89" cy="117.50" r="4.00" fill="hsl(149.3, 80%, 46.4%)" />
    <circle cx="342.89" cy="145.00" r="4.00" fill="hsl(136.6, 80%, 49.0%)" />
    <circle cx="342.89" cy="172.50" r="4.00" fill="hsl(122.0, 80%, 50.7%)" />
    <circle cx="342.89" cy="200.00" r="4.00" fill="hsl(107.5, 80%, 51.0%)" />
    <circle cx="342.89" cy="227.50" r="4.00" fill="hsl(95.6, 80%, 49.8%)" />
    <circle cx="342.89" cy="255.00" r="4.00" fill="hsl(88.9, 80%, 47.3%)" />
    <circle cx="342.89" cy="282.50" r="4.00" fill="hsl(88.0, 80%, 43.8%)" />
    <circle cx="319.08" cy="296.25" r="4.00" fill="hsl(92.5, 80%, 40.1%)" />
    <circle cx="295.26" cy="310.00" r="4.00" fill="hsl(101.1, 80%, 36.6%)" />
    <circle cx="271.45" cy="323.75" r="4.00" fill="hsl(112.7, 80%, 33.5%)" />
    <circle cx="247.63" cy="337.50" r="4.00" fill="hsl(125.7, 80%, 30.9%)" />
    <circle cx="223.82" cy="351.25" r="4.00" fill="hsl(138.8, 80%, 29.0%)" />
    <circle cx="200.00" cy="365.00" r="4.00" fill="hsl(149.3, 80%, 27.9%)" />
    <circle cx="176.18" cy="351.25" r="4.00" fill="hsl(155.0, 80%, 27.6%)" />
    <circle cx="152.37" cy="337.50" r="4.00" fill="hsl(155.0, 80%, 28.2%)" />
    <circle cx="128.55" cy="323.75" r="4.00" fill="hsl(150.1, 80%, 29.6%)" />
    <circle cx="104.74" cy="310.00" r="4.00" fill="hsl(141.0, 80%, 31.8%)" />
    <circle cx="80.92" cy="296.25" r="4.00" fill="hsl(128.7, 80%, 34.6%)" />
    <circle cx="57.11" cy="282.50" r="4.00" fill="hsl(115.3, 80%, 37.7%)" />
    <circle cx="57.11" cy="255.00" r="4.00" fill="hsl(103.2, 80%, 40.9%)" />
    <circle cx="57.11" cy="227.50" r="4.00" fill="hsl(94.2, 80%, 43.8%)" />
    <circle cx="57.11" cy="200.00" r="4.00" fill="hsl(89.8, 80%, 46.1%)" />
    <circle cx="57.11" cy="172.50" r="4.00" fill="hsl(90.1, 80%, 47.5%)" />
    <circle cx="57.11" cy="145.00" r="4.00" fill="hsl(95.0, 80%, 47.9%)" />
    <circle cx="57.11" cy="117.50" r="4.00" fill="hsl(103.8, 80%, 47.3%)" />
    <circle cx="80.92" cy="103.75" r="4.00" fill="hsl(115.3, 80%, 45.6%)" />
    <circle cx="104.74" cy="90.00" r="4.00" fill="hsl(128.1, 80%, 43.1%)" />
    <circle cx="128.55" cy="76.25" r="4.00" fill="hsl(140.4, 80%, 40.2%)" />
    <circle cx="152.37" cy="62.50" r="4.00" fill="hsl(149.8, 80%, 37.1%)" />
    <circle cx="176.18" cy="48.75" r="4.00" fill="hsl(155.0, 80%, 34.2%)" />

    <!-- ANILLO 6 (EXTERIOR) -->
    <circle cx="200.00" cy="15.00" r="2.50" fill="hsl(147.2, 80%, 28.1%)" />
    <circle cx="222.89" cy="28.21" r="2.50" fill="hsl(155.3, 80%, 29.9%)" />
    <circle cx="245.77" cy="41.43" r="2.50" fill="hsl(161.4, 80%, 32.4%)" />
    <circle cx="268.66" cy="54.64" r="2.50" fill="hsl(164.8, 80%, 35.4%)" />
    <circle cx="291.55" cy="67.86" r="2.50" fill="hsl(164.8, 80%, 38.8%)" />
    <circle cx="314.43" cy="81.07" r="2.50" fill="hsl(160.7, 80%, 42.2%)" />
    <circle cx="337.32" cy="94.29" r="2.50" fill="hsl(152.9, 80%, 45.4%)" />
    <circle cx="360.21" cy="107.50" r="2.50" fill="hsl(141.2, 80%, 48.0%)" />
    <circle cx="360.21" cy="133.93" r="2.50" fill="hsl(127.3, 80%, 49.9%)" />
    <circle cx="360.21" cy="160.36" r="2.50" fill="hsl(113.0, 80%, 51.0%)" />
    <circle cx="360.21" cy="186.79" r="2.50" fill="hsl(99.6, 80%, 50.8%)" />
    <circle cx="360.21" cy="213.21" r="2.50" fill="hsl(89.8, 80%, 49.2%)" />
    <circle cx="360.21" cy="239.64" r="2.50" fill="hsl(87.5, 80%, 46.5%)" />
    <circle cx="360.21" cy="266.07" r="2.50" fill="hsl(89.5, 80%, 43.1%)" />
    <circle cx="360.21" cy="292.50" r="2.50" fill="hsl(95.6, 80%, 39.5%)" />
    <circle cx="337.32" cy="305.71" r="2.50" fill="hsl(105.5, 80%, 36.0%)" />
    <circle cx="314.43" cy="318.93" r="2.50" fill="hsl(118.0, 80%, 32.9%)" />
    <circle cx="291.55" cy="332.14" r="2.50" fill="hsl(131.2, 80%, 30.5%)" />
    <circle cx="268.66" cy="345.36" r="2.50" fill="hsl(143.5, 80%, 28.7%)" />
    <circle cx="245.77" cy="358.57" r="2.50" fill="hsl(152.0, 80%, 27.8%)" />
    <circle cx="222.89" cy="371.79" r="2.50" fill="hsl(155.0, 80%, 27.6%)" />
    <circle cx="200.00" cy="385.00" r="2.50" fill="hsl(152.9, 80%, 28.1%)" />
    <circle cx="177.11" cy="371.79" r="2.50" fill="hsl(146.0, 80%, 29.2%)" />
    <circle cx="154.23" cy="358.57" r="2.50" fill="hsl(135.2, 80%, 31.0%)" />
    <circle cx="131.34" cy="345.36" r="2.50" fill="hsl(122.3, 80%, 33.4%)" />
    <circle cx="108.45" cy="332.14" r="2.50" fill="hsl(109.5, 80%, 36.3%)" />
    <circle cx="85.57" cy="318.93" r="2.50" fill="hsl(98.3, 80%, 39.5%)" />
    <circle cx="62.68" cy="305.71" r="2.50" fill="hsl(90.6, 80%, 42.6%)" />
    <circle cx="39.79" cy="292.50" r="2.50" fill="hsl(88.0, 80%, 45.4%)" />
    <circle cx="39.79" cy="266.07" r="2.50" fill="hsl(90.1, 80%, 47.4%)" />
    <circle cx="39.79" cy="239.64" r="2.50" fill="hsl(96.2, 80%, 48.3%)" />
    <circle cx="39.79" cy="213.21" r="2.50" fill="hsl(105.5, 80%, 48.0%)" />
    <circle cx="39.79" cy="186.79" r="2.50" fill="hsl(117.2, 80%, 46.5%)" />
    <circle cx="39.79" cy="160.36" r="2.50" fill="hsl(130.4, 80%, 44.1%)" />
    <circle cx="39.79" cy="133.93" r="2.50" fill="hsl(142.8, 80%, 41.2%)" />
    <circle cx="39.79" cy="107.50" r="2.50" fill="hsl(151.4, 80%, 38.1%)" />
    <circle cx="62.68" cy="94.29" r="2.50" fill="hsl(155.0, 80%, 35.1%)" />
    <circle cx="85.57" cy="81.07" r="2.50" fill="hsl(153.5, 80%, 32.5%)" />
    <circle cx="108.45" cy="67.86" r="2.50" fill="hsl(147.2, 80%, 30.4%)" />
    <circle cx="131.34" cy="54.64" r="2.50" fill="hsl(137.2, 80%, 28.9%)" />
    <circle cx="154.23" cy="41.43" r="2.50" fill="hsl(124.7, 80%, 28.0%)" />
    <circle cx="177.11" cy="28.21" r="2.50" fill="hsl(111.9, 80%, 27.7%)" />
  </g>
</svg>
